<svg width="1100" viewBox="0 0 1100 920" xmlns="http://www.w3.org/2000/svg" font-family="ui-monospace, 'Cascadia Code', 'Segoe UI Mono', monospace">

  <defs>
    <marker id="arrow" viewBox="0 0 10 10" refX="8" refY="5" markerWidth="6" markerHeight="6" orient="auto-start-reverse">
      <path d="M2 1L8 5L2 9" fill="none" stroke="#7C6EE6" stroke-width="1.5" stroke-linecap="round" stroke-linejoin="round"/>
    </marker>
    <marker id="arrow-dash" viewBox="0 0 10 10" refX="8" refY="5" markerWidth="6" markerHeight="6" orient="auto-start-reverse">
      <path d="M2 1L8 5L2 9" fill="none" stroke="#a07cff" stroke-width="1.5" stroke-linecap="round" stroke-linejoin="round"/>
    </marker>
  </defs>

  <rect width="1100" height="920" rx="16" fill="#0f0f11"/>

  <!-- ══ ROW 0: App entry ══ -->
  <rect x="400" y="28" width="300" height="58" rx="10" fill="#2e2460" stroke="#7C6EE6" stroke-width="1.5"/>
  <text x="550" y="52" text-anchor="middle" font-size="15" font-weight="600" fill="#c4b8ff">digital-resume</text>
  <text x="550" y="72" text-anchor="middle" font-size="11" fill="#8b80c7">Next.js app · data source</text>

  <!-- ══ Bus lines: app → files ══ -->
  <line x1="550" y1="86" x2="550" y2="112" stroke="#7C6EE6" stroke-width="1"/>
  <line x1="100" y1="112" x2="900" y2="112" stroke="#7C6EE6" stroke-width="1"/>
  <line x1="100" y1="112" x2="100" y2="148" stroke="#7C6EE6" stroke-width="1" marker-end="url(#arrow)"/>
  <line x1="290" y1="112" x2="290" y2="148" stroke="#7C6EE6" stroke-width="1" marker-end="url(#arrow)"/>
  <line x1="490" y1="112" x2="490" y2="148" stroke="#7C6EE6" stroke-width="1" marker-end="url(#arrow)"/>
  <line x1="700" y1="112" x2="700" y2="148" stroke="#7C6EE6" stroke-width="1" marker-end="url(#arrow)"/>
  <line x1="900" y1="112" x2="900" y2="148" stroke="#7C6EE6" stroke-width="1" marker-end="url(#arrow)"/>

  <!-- ══ ROW 1: JSON file pills  w=170, gap=20 ══ -->
  <rect x="15"  y="148" width="170" height="54" rx="8" fill="#0e2e2a" stroke="#1f9b7a" stroke-width="1.2"/>
  <text x="100" y="170" text-anchor="middle" font-size="12" font-weight="600" fill="#3ecfa7">work_history</text>
  <text x="100" y="188" text-anchor="middle" font-size="10" fill="#2a8a69">.json · 3 entries</text>

  <rect x="205" y="148" width="170" height="54" rx="8" fill="#0e2e2a" stroke="#1f9b7a" stroke-width="1.2"/>
  <text x="290" y="170" text-anchor="middle" font-size="12" font-weight="600" fill="#3ecfa7">projects</text>
  <text x="290" y="188" text-anchor="middle" font-size="10" fill="#2a8a69">.json · 14 entries</text>

  <rect x="405" y="148" width="170" height="54" rx="8" fill="#0e2e2a" stroke="#1f9b7a" stroke-width="1.2"/>
  <text x="490" y="170" text-anchor="middle" font-size="12" font-weight="600" fill="#3ecfa7">tools</text>
  <text x="490" y="188" text-anchor="middle" font-size="10" fill="#2a8a69">.json · 25 entries</text>

  <rect x="615" y="148" width="170" height="54" rx="8" fill="#0e2e2a" stroke="#1f9b7a" stroke-width="1.2"/>
  <text x="700" y="170" text-anchor="middle" font-size="12" font-weight="600" fill="#3ecfa7">skills_hard</text>
  <text x="700" y="188" text-anchor="middle" font-size="10" fill="#2a8a69">.json · 26 entries</text>

  <rect x="815" y="148" width="170" height="54" rx="8" fill="#0e2e2a" stroke="#1f9b7a" stroke-width="1.2"/>
  <text x="900" y="170" text-anchor="middle" font-size="12" font-weight="600" fill="#3ecfa7">skills_soft</text>
  <text x="900" y="188" text-anchor="middle" font-size="10" fill="#2a8a69">.json · 15 entries</text>

  <!-- ══ Files → schema connectors ══ -->
  <line x1="100" y1="202" x2="100" y2="252" stroke="#7C6EE6" stroke-width="1" marker-end="url(#arrow)"/>
  <line x1="290" y1="202" x2="290" y2="252" stroke="#7C6EE6" stroke-width="1" marker-end="url(#arrow)"/>
  <line x1="490" y1="202" x2="490" y2="252" stroke="#7C6EE6" stroke-width="1" marker-end="url(#arrow)"/>
  <line x1="700" y1="202" x2="700" y2="252" stroke="#7C6EE6" stroke-width="1" marker-end="url(#arrow)"/>
  <line x1="900" y1="202" x2="900" y2="252" stroke="#7C6EE6" stroke-width="1" marker-end="url(#arrow)"/>

  <!-- ══════════════════════════════════════
       SCHEMA BOXES — all x-aligned, w=190
       Positions: 15, 215, 415, 615, 815
  ══════════════════════════════════════ -->

  <!-- WorkEntry  x=15 w=190 -->
  <rect x="15" y="252" width="190" height="28" rx="8" fill="#1e1e2e" stroke="#444" stroke-width="1"/>
  <rect x="15" y="270" width="190" height="10" fill="#1e1e2e"/>
  <text x="110" y="271" text-anchor="middle" font-size="11" font-weight="600" fill="#a0a0c0">WorkEntry {}</text>
  <line x1="15" y1="280" x2="205" y2="280" stroke="#333" stroke-width="0.8"/>
  <rect x="15" y="280" width="190" height="22" fill="#18181e"/>
  <text x="29" y="295" font-size="10" fill="#7c7c9c">id</text><text x="201" y="295" text-anchor="end" font-size="10" fill="#555" font-style="italic">string</text>
  <line x1="15" y1="302" x2="205" y2="302" stroke="#2a2a36" stroke-width="0.6"/>
  <rect x="15" y="302" width="190" height="22" fill="#1c1c26"/>
  <text x="29" y="317" font-size="10" fill="#7c7c9c">period.start / .end</text><text x="201" y="317" text-anchor="end" font-size="10" fill="#555" font-style="italic">string</text>
  <line x1="15" y1="324" x2="205" y2="324" stroke="#2a2a36" stroke-width="0.6"/>
  <rect x="15" y="324" width="190" height="22" fill="#18181e"/>
  <text x="29" y="339" font-size="10" fill="#7c7c9c">title</text><text x="201" y="339" text-anchor="end" font-size="10" fill="#555" font-style="italic">string</text>
  <line x1="15" y1="346" x2="205" y2="346" stroke="#2a2a36" stroke-width="0.6"/>
  <rect x="15" y="346" width="190" height="22" fill="#1c1c26"/>
  <text x="29" y="361" font-size="10" fill="#7c7c9c">employer</text><text x="201" y="361" text-anchor="end" font-size="10" fill="#555" font-style="italic">string</text>
  <line x1="15" y1="368" x2="205" y2="368" stroke="#2a2a36" stroke-width="0.6"/>
  <rect x="15" y="368" width="190" height="22" fill="#18181e"/>
  <text x="29" y="383" font-size="10" fill="#7c7c9c">isProject</text><text x="201" y="383" text-anchor="end" font-size="10" fill="#555" font-style="italic">boolean</text>
  <line x1="15" y1="390" x2="205" y2="390" stroke="#2a2a36" stroke-width="0.6"/>
  <rect x="15" y="390" width="190" height="22" fill="#1c1c26"/>
  <text x="29" y="405" font-size="10" fill="#a07cff">employer_profile</text><text x="201" y="405" text-anchor="end" font-size="10" fill="#a07cff" font-style="italic">→ obj</text>
  <line x1="15" y1="412" x2="205" y2="412" stroke="#2a2a36" stroke-width="0.6"/>
  <rect x="15" y="412" width="190" height="22" fill="#18181e"/>
  <text x="29" y="427" font-size="10" fill="#7c7c9c">responsibilities[]</text><text x="201" y="427" text-anchor="end" font-size="10" fill="#555" font-style="italic">string[]</text>
  <line x1="15" y1="434" x2="205" y2="434" stroke="#2a2a36" stroke-width="0.6"/>
  <rect x="15" y="434" width="190" height="22" fill="#1c1c26"/>
  <text x="29" y="449" font-size="10" fill="#7c7c9c">achievements[]</text><text x="201" y="449" text-anchor="end" font-size="10" fill="#555" font-style="italic">string[]</text>
  <line x1="15" y1="456" x2="205" y2="456" stroke="#2a2a36" stroke-width="0.6"/>
  <rect x="15" y="456" width="190" height="22" fill="#18181e"/>
  <text x="29" y="471" font-size="10" fill="#7c7c9c">languages[]</text><text x="201" y="471" text-anchor="end" font-size="10" fill="#555" font-style="italic">string[]</text>
  <line x1="15" y1="478" x2="205" y2="478" stroke="#2a2a36" stroke-width="0.6"/>
  <rect x="15" y="478" width="190" height="22" fill="#1c1c26"/>
  <text x="29" y="493" font-size="10" fill="#7c7c9c">tools[]</text><text x="201" y="493" text-anchor="end" font-size="10" fill="#555" font-style="italic">string[]</text>
  <path d="M15 280 L15 500 Q15 508 23 508 L197 508 Q205 508 205 500 L205 280" fill="none" stroke="#444" stroke-width="1"/>

  <!-- Project  x=215 w=190 -->
  <rect x="215" y="252" width="190" height="28" rx="8" fill="#1e1e2e" stroke="#444" stroke-width="1"/>
  <rect x="215" y="270" width="190" height="10" fill="#1e1e2e"/>
  <text x="310" y="271" text-anchor="middle" font-size="11" font-weight="600" fill="#a0a0c0">Project {}</text>
  <line x1="215" y1="280" x2="405" y2="280" stroke="#333" stroke-width="0.8"/>
  <rect x="215" y="280" width="190" height="22" fill="#18181e"/>
  <text x="229" y="295" font-size="10" fill="#7c7c9c">id</text><text x="401" y="295" text-anchor="end" font-size="10" fill="#555" font-style="italic">string</text>
  <line x1="215" y1="302" x2="405" y2="302" stroke="#2a2a36" stroke-width="0.6"/>
  <rect x="215" y="302" width="190" height="22" fill="#1c1c26"/>
  <text x="229" y="317" font-size="10" fill="#7c7c9c">name</text><text x="401" y="317" text-anchor="end" font-size="10" fill="#555" font-style="italic">string</text>
  <line x1="215" y1="324" x2="405" y2="324" stroke="#2a2a36" stroke-width="0.6"/>
  <rect x="215" y="324" width="190" height="22" fill="#18181e"/>
  <text x="229" y="339" font-size="10" fill="#7c7c9c">icon / alt</text><text x="401" y="339" text-anchor="end" font-size="10" fill="#555" font-style="italic">string</text>
  <line x1="215" y1="346" x2="405" y2="346" stroke="#2a2a36" stroke-width="0.6"/>
  <rect x="215" y="346" width="190" height="22" fill="#1c1c26"/>
  <text x="229" y="361" font-size="10" fill="#7c7c9c">url</text><text x="401" y="361" text-anchor="end" font-size="10" fill="#555" font-style="italic">string</text>
  <line x1="215" y1="368" x2="405" y2="368" stroke="#2a2a36" stroke-width="0.6"/>
  <rect x="215" y="368" width="190" height="22" fill="#18181e"/>
  <text x="229" y="383" font-size="10" fill="#7c7c9c">description</text><text x="401" y="383" text-anchor="end" font-size="10" fill="#555" font-style="italic">string</text>
  <line x1="215" y1="390" x2="405" y2="390" stroke="#2a2a36" stroke-width="0.6"/>
  <rect x="215" y="390" width="190" height="22" fill="#1c1c26"/>
  <text x="229" y="405" font-size="10" fill="#7c7c9c">coretool</text><text x="401" y="405" text-anchor="end" font-size="10" fill="#555" font-style="italic">string</text>
  <line x1="215" y1="412" x2="405" y2="412" stroke="#2a2a36" stroke-width="0.6"/>
  <rect x="215" y="412" width="190" height="22" fill="#18181e"/>
  <text x="229" y="427" font-size="10" fill="#7c7c9c">subtools[]</text><text x="401" y="427" text-anchor="end" font-size="10" fill="#555" font-style="italic">string[]</text>
  <path d="M215 280 L215 434 Q215 442 223 442 L397 442 Q405 442 405 434 L405 280" fill="none" stroke="#444" stroke-width="1"/>

  <!-- Tool  x=415 w=190 -->
  <rect x="415" y="252" width="190" height="28" rx="8" fill="#1e1e2e" stroke="#444" stroke-width="1"/>
  <rect x="415" y="270" width="190" height="10" fill="#1e1e2e"/>
  <text x="510" y="271" text-anchor="middle" font-size="11" font-weight="600" fill="#a0a0c0">Tool {}</text>
  <line x1="415" y1="280" x2="605" y2="280" stroke="#333" stroke-width="0.8"/>
  <rect x="415" y="280" width="190" height="22" fill="#18181e"/>
  <text x="429" y="295" font-size="10" fill="#7c7c9c">id</text><text x="601" y="295" text-anchor="end" font-size="10" fill="#555" font-style="italic">string</text>
  <line x1="415" y1="302" x2="605" y2="302" stroke="#2a2a36" stroke-width="0.6"/>
  <rect x="415" y="302" width="190" height="22" fill="#1c1c26"/>
  <text x="429" y="317" font-size="10" fill="#7c7c9c">name</text><text x="601" y="317" text-anchor="end" font-size="10" fill="#555" font-style="italic">string</text>
  <line x1="415" y1="324" x2="605" y2="324" stroke="#2a2a36" stroke-width="0.6"/>
  <rect x="415" y="324" width="190" height="22" fill="#18181e"/>
  <text x="429" y="339" font-size="10" fill="#7c7c9c">url</text><text x="601" y="339" text-anchor="end" font-size="10" fill="#555" font-style="italic">string</text>
  <path d="M415 280 L415 346 Q415 354 423 354 L597 354 Q605 354 605 346 L605 280" fill="none" stroke="#444" stroke-width="1"/>

  <!-- HardSkill  x=615 w=190 -->
  <rect x="615" y="252" width="190" height="28" rx="8" fill="#1e1e2e" stroke="#444" stroke-width="1"/>
  <rect x="615" y="270" width="190" height="10" fill="#1e1e2e"/>
  <text x="710" y="271" text-anchor="middle" font-size="11" font-weight="600" fill="#a0a0c0">HardSkill {}</text>
  <line x1="615" y1="280" x2="805" y2="280" stroke="#333" stroke-width="0.8"/>
  <rect x="615" y="280" width="190" height="22" fill="#18181e"/>
  <text x="629" y="295" font-size="10" fill="#7c7c9c">id</text><text x="801" y="295" text-anchor="end" font-size="10" fill="#555" font-style="italic">string</text>
  <line x1="615" y1="302" x2="805" y2="302" stroke="#2a2a36" stroke-width="0.6"/>
  <rect x="615" y="302" width="190" height="22" fill="#1c1c26"/>
  <text x="629" y="317" font-size="10" fill="#7c7c9c">name</text><text x="801" y="317" text-anchor="end" font-size="10" fill="#555" font-style="italic">string</text>
  <line x1="615" y1="324" x2="805" y2="324" stroke="#2a2a36" stroke-width="0.6"/>
  <rect x="615" y="324" width="190" height="22" fill="#18181e"/>
  <text x="629" y="339" font-size="10" fill="#7c7c9c">url</text><text x="801" y="339" text-anchor="end" font-size="10" fill="#555" font-style="italic">string</text>
  <path d="M615 280 L615 346 Q615 354 623 354 L797 354 Q805 354 805 346 L805 280" fill="none" stroke="#444" stroke-width="1"/>

  <!-- SoftSkill  x=815 w=190 -->
  <rect x="815" y="252" width="190" height="28" rx="8" fill="#1e1e2e" stroke="#444" stroke-width="1"/>
  <rect x="815" y="270" width="190" height="10" fill="#1e1e2e"/>
  <text x="910" y="271" text-anchor="middle" font-size="11" font-weight="600" fill="#a0a0c0">SoftSkill {}</text>
  <line x1="815" y1="280" x2="1005" y2="280" stroke="#333" stroke-width="0.8"/>
  <rect x="815" y="280" width="190" height="22" fill="#18181e"/>
  <text x="829" y="295" font-size="10" fill="#7c7c9c">id</text><text x="1001" y="295" text-anchor="end" font-size="10" fill="#555" font-style="italic">string</text>
  <line x1="815" y1="302" x2="1005" y2="302" stroke="#2a2a36" stroke-width="0.6"/>
  <rect x="815" y="302" width="190" height="22" fill="#1c1c26"/>
  <text x="829" y="317" font-size="10" fill="#7c7c9c">name</text><text x="1001" y="317" text-anchor="end" font-size="10" fill="#555" font-style="italic">string</text>
  <line x1="815" y1="324" x2="1005" y2="324" stroke="#2a2a36" stroke-width="0.6"/>
  <rect x="815" y="324" width="190" height="22" fill="#18181e"/>
  <text x="829" y="339" font-size="10" fill="#7c7c9c">url</text><text x="1001" y="339" text-anchor="end" font-size="10" fill="#555" font-style="italic">string</text>
  <path d="M815 280 L815 346 Q815 354 823 354 L997 354 Q1005 354 1005 346 L1005 280" fill="none" stroke="#444" stroke-width="1"/>

  <!-- ══════════════════════════════════════
       EmployerProfile — placed right of WorkEntry
       at x=230, y=560, w=190
       Connector routes: right from WorkEntry right edge (x=205)
       at y=401, then down then arrives at top of box
  ══════════════════════════════════════ -->
  <path d="M205 401 L230 401 L230 558" fill="none" stroke="#a07cff" stroke-width="1" stroke-dasharray="5 3" marker-end="url(#arrow-dash)"/>

  <rect x="230" y="558" width="190" height="28" rx="8" fill="#231e38" stroke="#6044aa" stroke-width="1"/>
  <rect x="230" y="574" width="190" height="10" fill="#231e38"/>
  <text x="325" y="577" text-anchor="middle" font-size="11" font-weight="600" fill="#c4a7ff">EmployerProfile {}</text>
  <line x1="230" y1="586" x2="420" y2="586" stroke="#443366" stroke-width="0.8"/>
  <rect x="230" y="586" width="190" height="22" fill="#1c1828"/>
  <text x="244" y="601" font-size="10" fill="#9090b8">name</text><text x="416" y="601" text-anchor="end" font-size="10" fill="#555" font-style="italic">string</text>
  <line x1="230" y1="608" x2="420" y2="608" stroke="#2a2436" stroke-width="0.6"/>
  <rect x="230" y="608" width="190" height="22" fill="#201c30"/>
  <text x="244" y="623" font-size="10" fill="#9090b8">avatar / logo</text><text x="416" y="623" text-anchor="end" font-size="10" fill="#555" font-style="italic">string</text>
  <line x1="230" y1="630" x2="420" y2="630" stroke="#2a2436" stroke-width="0.6"/>
  <rect x="230" y="630" width="190" height="22" fill="#1c1828"/>
  <text x="244" y="645" font-size="10" fill="#9090b8">website</text><text x="416" y="645" text-anchor="end" font-size="10" fill="#555" font-style="italic">string</text>
  <line x1="230" y1="652" x2="420" y2="652" stroke="#2a2436" stroke-width="0.6"/>
  <rect x="230" y="652" width="190" height="22" fill="#201c30"/>
  <text x="244" y="667" font-size="10" fill="#9090b8">industry</text><text x="416" y="667" text-anchor="end" font-size="10" fill="#555" font-style="italic">string</text>
  <line x1="230" y1="674" x2="420" y2="674" stroke="#2a2436" stroke-width="0.6"/>
  <rect x="230" y="674" width="190" height="22" fill="#1c1828"/>
  <text x="244" y="689" font-size="10" fill="#9090b8">description</text><text x="416" y="689" text-anchor="end" font-size="10" fill="#555" font-style="italic">string</text>
  <path d="M230 586 L230 696 Q230 704 238 704 L412 704 Q420 704 420 696 L420 586" fill="none" stroke="#6044aa" stroke-width="1"/>

  <!-- ══ Cross-reference note ══ -->
  <rect x="15" y="548" width="205" height="52" rx="6" fill="#1a1a14" stroke="#5a5020" stroke-width="1"/>
  <text x="117" y="567" text-anchor="middle" font-size="10" font-weight="600" fill="#8a8040">⚠  Cross-ref note</text>
  <text x="117" y="582" text-anchor="middle" font-size="9" fill="#6a6030">work_history languages[]</text>
  <text x="117" y="595" text-anchor="middle" font-size="9" fill="#6a6030">&amp; tools[] → raw strings, no FK</text>

  <!-- ══ Legend ══ -->
  <rect x="15" y="830" width="1070" height="68" rx="10" fill="#15151d" stroke="#2a2a38" stroke-width="1"/>
  <text x="36" y="852" font-size="11" font-weight="600" fill="#555">Legend</text>
  <rect x="36"  y="862" width="12" height="12" rx="3" fill="#2e2460" stroke="#7C6EE6" stroke-width="1.2"/>
  <text x="54"  y="873" font-size="10" fill="#666">App entry point</text>
  <rect x="195" y="862" width="12" height="12" rx="3" fill="#0e2e2a" stroke="#1f9b7a" stroke-width="1.2"/>
  <text x="213" y="873" font-size="10" fill="#666">JSON data file</text>
  <rect x="354" y="862" width="12" height="12" rx="3" fill="#1e1e2e" stroke="#444" stroke-width="1"/>
  <text x="372" y="873" font-size="10" fill="#666">Schema / shape</text>
  <rect x="513" y="862" width="12" height="12" rx="3" fill="#231e38" stroke="#6044aa" stroke-width="1"/>
  <text x="531" y="873" font-size="10" fill="#666">Nested object</text>
  <line x1="672" y1="868" x2="700" y2="868" stroke="#7C6EE6" stroke-width="1.2" marker-end="url(#arrow)"/>
  <text x="706" y="873" font-size="10" fill="#666">Data flows to</text>
  <line x1="810" y1="868" x2="838" y2="868" stroke="#a07cff" stroke-width="1.2" stroke-dasharray="4 3" marker-end="url(#arrow-dash)"/>
  <text x="844" y="873" font-size="10" fill="#666">Nested reference</text>
  <text x="984" y="873" font-size="10" fill="#555" font-style="italic">string</text>
  <text x="1012" y="873" font-size="10" fill="#666">= type</text>

</svg>
